<?xml version="1.0" encoding="iso-8859-1"?>
<!-- Generator: Adobe Illustrator 19.0.0, SVG Export Plug-In . SVG Version: 6.00 Build 0)  -->
<svg version="1.1" id="Capa_1" xmlns="http://www.w3.org/2000/svg" xmlns:xlink="http://www.w3.org/1999/xlink" x="16px" y="16px"
	 viewBox="0 0 469.333 469.333" style="enable-background:new 0 0 469.333 469.333;" xml:space="preserve">
<g>
	<g>
		<g>
			<path d="M234.667,256c-54.53,0-103.049,25.805-134.315,65.737l50.723,87.742c7.975-38.844,42.426-68.146,83.592-68.146h147.574
				C352.676,290.409,297.671,256,234.667,256z"/>
			<path d="M458.667,0h-448C4.771,0,0,4.771,0,10.667v416c0,23.531,19.135,42.667,42.667,42.667h384
				c23.531,0,42.667-19.135,42.667-42.667v-416C469.333,4.771,464.563,0,458.667,0z M181.333,42.667H288c17.646,0,32,14.354,32,32
				s-14.354,32-32,32H181.333c-17.646,0-32-14.354-32-32S163.687,42.667,181.333,42.667z M425.292,448h-21.443
				c0.88-7.076,1.484-14.201,1.484-21.333c0-22.638-4.526-44.215-12.565-64H290.509c17.919,15.654,29.491,38.393,29.491,64
				c0,7.342-1.388,14.402-3.313,21.333h-22.072c2.44-6.849,4.051-13.931,4.051-21.333c0-35.292-28.708-64-64-64s-64,28.708-64,64
				c0,7.406,1.608,14.488,4.047,21.333h-26.018L87.062,341.384C72.487,366.51,64,395.587,64,426.667
				c0,7.133,0.604,14.258,1.484,21.333H44.042c-0.806-7.089-1.375-14.208-1.375-21.333c0-41.367,13.284-79.618,35.625-110.999
				c0.458-0.831,1.01-1.564,1.689-2.258c34.974-47.634,91.199-78.743,154.686-78.743c77.263,0,143.845,45.978,174.275,111.923
				c0.41,0.677,0.767,1.348,1.02,2.113c10.654,23.854,16.706,50.195,16.706,77.964C426.667,433.792,426.098,440.911,425.292,448z"/>
		</g>
	</g>
</g>
</svg>
