<svg xmlns="http://www.w3.org/2000/svg" id="excel_icon" viewBox="0 0 16 16">
    <path d="M 5.884 6.68 C 5.645 6.378 5.169 6.449 5.027 6.807 C 4.958 6.981 4.993 7.179 5.116 7.32 L 7.349 10 L 5.116 12.68 C 4.877 12.982 5.054 13.429 5.434 13.485 C 5.603 13.51 5.772 13.448 5.884 13.32 L 8 10.781 L 10.116 13.321 C 10.363 13.617 10.837 13.534 10.97 13.173 C 11.031 13.005 10.999 12.817 10.884 12.68 L 8.651 10 L 10.884 7.32 C 11.123 7.018 10.946 6.571 10.566 6.515 C 10.397 6.49 10.228 6.552 10.116 6.68 L 8 9.219 L 5.884 6.679 L 5.884 6.68 Z" style="transform-origin: 7.99621px 9.99569px;" transform="matrix(0.86602509, 0.5, -0.5, 0.86602509, 9.3e-7, 3.4e-7)"/>
    <path d="M14 14V4.5L9.5 0H4a2 2 0 0 0-2 2v12a2 2 0 0 0 2 2h8a2 2 0 0 0 2-2M9.5 3A1.5 1.5 0 0 0 11 4.5h2V14a1 1 0 0 1-1 1H4a1 1 0 0 1-1-1V2a1 1 0 0 1 1-1h5.5z"/>
</svg>
